# xmcd
#
# Track frame offsets:
#	150
#	13588
#	31092
#	49811
#	70096
#	87346
#	103493
#	124391
#	144302
#	158960
#	180580
#	193403
#
# Disc length: 2964 seconds
#
# Revision: 0
# Processed by: cddbd v1.5.2PL0 Copyright (c) Steve Scherf et al.
# Submitted via: FairStars CD Ripper 1.90
#
DISCID=a90b920c
DTITLE=The Audreys - 'Til My Tears Roll Away
DYEAR=2014
DGENRE=Alt Country
TTITLE0=My Darlin' Girl
TTITLE1=Baby, Are You There?
TTITLE2=Keep Your Company
TTITLE3=Ballard For The Fallen
TTITLE4=Roll Away
TTITLE5=Comfort Me (Feat. The Nymphs)
TTITLE6=Bring The Stars Out
TTITLE7=Lady Luck
TTITLE8=Come On Back To Bed
TTITLE9=Why Must I Wait
TTITLE10=I Can't Sleep
TTITLE11=Love Has A Way Of Unravelling
EXTD=
EXTT0=
EXTT1=
EXTT2=
EXTT3=
EXTT4=
EXTT5=
EXTT6=
EXTT7=
EXTT8=
EXTT9=
EXTT10=
EXTT11=
PLAYORDER=
